<svg width="152px" height="69px" viewBox="0 0 152 69" version="1.1" xmlns="http://www.w3.org/2000/svg" xmlns:xlink="http://www.w3.org/1999/xlink">
    <!-- Generator: Sketch 51.3 (57544) - http://www.bohemiancoding.com/sketch -->
    <desc>Created with Sketch.</desc>
    <defs></defs>
    <g id="Lift" stroke="none" stroke-width="1" fill="none" fill-rule="evenodd">
        <g id="Splash-Screen" transform="translate(-103.000000, -91.000000)" fill="#FAD961">
            <g id="Group" transform="translate(103.000000, 83.000000)">
                <path d="M0,73.1044386 L0,10.8093995 C0,10.2924256 0.202310116,9.86162052 0.606936416,9.51697128 C1.01156272,9.17232204 1.50288728,9 2.08092486,9 C2.71676618,9 3.2369922,9.17232204 3.6416185,9.51697128 C4.0462448,9.86162052 4.24855491,10.2924256 4.24855491,10.8093995 L4.24855491,73.1044386 C4.24855491,73.563971 4.03179408,73.9947761 3.5982659,74.3968668 C3.16473772,74.7989576 2.65896243,75 2.08092486,75 C1.50288728,75 1.01156272,74.8133178 0.606936416,74.4399478 C0.202310116,74.0665778 0,73.6214125 0,73.1044386 Z M15.1734104,18.305483 C15.1734104,17.5013015 15.4913263,16.7976531 16.1271676,16.194517 C16.763009,15.5913808 17.543348,15.2898172 18.4682081,15.2898172 C19.3352645,15.2898172 20.086702,15.5913808 20.7225434,16.194517 C21.3583847,16.7976531 21.6763006,17.5013015 21.6763006,18.305483 C21.6763006,19.1671061 21.3583847,19.913835 20.7225434,20.5456919 C20.086702,21.1775489 19.3352645,21.4934726 18.4682081,21.4934726 C17.543348,21.4934726 16.763009,21.1775489 16.1271676,20.5456919 C15.4913263,19.913835 15.1734104,19.1671061 15.1734104,18.305483 Z M16.3872832,73.1044386 L16.3872832,36.0548303 C16.3872832,34.9059995 17.0809179,34.3315927 18.4682081,34.3315927 C19.913302,34.3315927 20.6358382,34.9059995 20.6358382,36.0548303 L20.6358382,73.1044386 C20.6358382,73.563971 20.4190773,73.9947761 19.9855491,74.3968668 C19.552021,74.7989576 19.0462457,75 18.4682081,75 C17.8901705,75 17.398846,74.8133178 16.9942197,74.4399478 C16.5895934,74.0665778 16.3872832,73.6214125 16.3872832,73.1044386 Z M32.0809249,73.1906005 L32.0809249,24.5953003 C32.0809249,20.4020678 33.6127014,16.7545847 36.6763006,13.6527415 C39.7398997,10.5508983 43.3525803,9 47.5144509,9 L48.9884393,9 C49.5664769,9 50.0433507,9.20104238 50.4190751,9.60313316 C50.7947996,10.0052239 50.982659,10.4934697 50.982659,11.0678851 C50.982659,11.6423005 50.7947996,12.101826 50.4190751,12.4464752 C50.0433507,12.7911244 49.5664769,12.9634465 48.9884393,12.9634465 L47.8612717,12.9634465 C44.6242613,12.9634465 41.9075254,14.0978999 39.7109827,16.3668407 C37.5144399,18.6357816 36.3872835,21.3211333 36.3294798,24.4229765 L36.3294798,34.3315927 L49.1618497,34.3315927 C49.6820835,34.3315927 50.1156052,34.5182749 50.4624277,34.8916449 C50.8092503,35.2650149 50.982659,35.6814598 50.982659,36.1409922 C50.982659,36.657966 50.8092503,37.1031313 50.4624277,37.4765013 C50.1156052,37.8498713 49.6820835,38.0365535 49.1618497,38.0365535 L36.3294798,38.0365535 L36.3294798,73.1906005 C36.3294798,73.7075744 36.1127189,74.1383795 35.6791908,74.4830287 C35.2456626,74.827678 34.7109858,75 34.0751445,75 C32.7456581,75 32.0809249,74.3968729 32.0809249,73.1906005 Z M57.5722543,62.6788512 L57.5722543,16.4099217 C57.5722543,15.8929478 57.7890152,15.4621427 58.2225434,15.1174935 C58.6560715,14.7728442 59.1329454,14.6005222 59.6531792,14.6005222 C60.2312168,14.6005222 60.7369921,14.7728442 61.1705202,15.1174935 C61.6040484,15.4621427 61.8208092,15.8929478 61.8208092,16.4099217 L61.8208092,34.3315927 L73.3526012,34.3315927 C73.8150312,34.3315927 74.2052007,34.5182749 74.5231214,34.8916449 C74.8410421,35.2650149 75,35.7101802 75,36.227154 C75,36.6866864 74.8265913,37.1031313 74.4797688,37.4765013 C74.1329462,37.8498713 73.7572275,38.0365535 73.3526012,38.0365535 L61.8208092,38.0365535 L61.8208092,62.6788512 C61.8208092,65.7232528 62.4855425,67.8772783 63.8150289,69.1409922 C65.1445153,70.4047061 67.4566309,71.0365535 70.7514451,71.0365535 L72.9190751,71.0365535 C73.4971127,71.0365535 73.9739866,71.2232357 74.349711,71.5966057 C74.7254354,71.9699758 74.9132948,72.4438614 74.9132948,73.0182768 C74.9132948,73.5352506 74.7254354,73.9947761 74.349711,74.3968668 C73.9739866,74.7989576 73.4971127,75 72.9190751,75 L70.7514451,75 C61.965274,75 57.5722543,70.8929915 57.5722543,62.6788512 Z" id="lift"></path>
                <g id="dumbell" transform="translate(117.500000, 42.500000) scale(-1, 1) rotate(-45.000000) translate(-117.500000, -42.500000) translate(81.000000, 19.000000)" fill-rule="nonzero">
                    <path d="M67.9356291,9.37991913 L63.195934,9.37991913 L63.195934,4.68995956 C63.195934,2.10422852 61.0693908,0 58.456239,0 L55.2964423,0 C52.6832904,0 50.5567472,2.10422852 50.5567472,4.68995956 L50.5567472,15.6331985 L22.1185769,15.6331985 L22.1185769,4.68995956 C22.1185769,2.10422852 19.9920337,0 17.3788819,0 L14.2190852,0 C11.6059333,0 9.4793901,2.10422852 9.4793901,4.68995956 L9.4793901,9.37991913 C8.79687402,9.37991913 8.27024123,9.37991913 7.89949175,9.37991913 L4.73969505,9.37991913 C2.12654318,9.37991913 0,11.4841477 0,14.0698787 L0,32.829717 C0,35.415448 2.12654318,37.5196765 4.73969505,37.5196765 L7.89949175,37.5196765 C8.27024123,37.5196765 8.79687402,37.5196765 9.4793901,37.5196765 L9.4793901,42.2096361 C9.4793901,44.7953671 11.6059333,46.8995956 14.2190852,46.8995956 L17.3788819,46.8995956 C19.9920337,46.8995956 22.1185769,44.7953671 22.1185769,42.2096361 L22.1185769,31.2663971 L50.5567472,31.2663971 L50.5567472,42.2096361 C50.5567472,44.7953671 52.6832904,46.8995956 55.2964423,46.8995956 L58.456239,46.8995956 C61.0693908,46.8995956 63.195934,44.7953671 63.195934,42.2096361 L63.195934,37.5196765 L67.9356291,37.5196765 C70.5487809,37.5196765 72.6753241,35.415448 72.6753241,32.829717 L72.6753241,14.0698787 C72.6753241,11.4841477 70.5487809,9.37991913 67.9356291,9.37991913 Z M9.49734349,34.6649185 L4.85190374,34.6649185 C3.99869131,34.6649185 3.30342382,33.9586281 3.30342382,33.0918886 L3.30342382,14.2155296 C3.30342382,13.3487901 3.99869131,12.6424997 4.85190374,12.6424997 L9.49734349,12.6424997 L9.49734349,14.2155296 L9.49734349,34.6649185 Z M18.994687,42.4762893 C18.994687,43.3405594 18.2994195,44.0448377 17.4462071,44.0448377 L14.3492472,44.0448377 C13.4960348,44.0448377 12.8007673,43.3405594 12.8007673,42.4762893 L12.8007673,33.0649992 L12.8007673,14.242419 L12.8007673,4.83112892 C12.8007673,3.96685878 13.4960348,3.26258057 14.3492472,3.26258057 L17.4462071,3.26258057 C18.2994195,3.26258057 18.994687,3.96685878 18.994687,4.83112892 L18.994687,42.4762893 Z M50.7901413,28.1397574 L22.2981108,28.1397574 L22.2981108,18.7598383 L50.7901413,18.7598383 L50.7901413,28.1397574 Z M59.8745568,14.242419 L59.8745568,33.0649992 L59.8745568,42.4762893 C59.8745568,43.3405594 59.1792893,44.0448377 58.3260769,44.0448377 L55.2291171,44.0448377 C54.3759046,44.0448377 53.6806371,43.3405594 53.6806371,42.4762893 L53.6806371,4.83112892 C53.6806371,3.96685878 54.3759046,3.26258057 55.2291171,3.26258057 L58.3260769,3.26258057 C59.1792893,3.26258057 59.8745568,3.96685878 59.8745568,4.83112892 L59.8745568,14.242419 Z M69.3719003,33.0918886 C69.3719003,33.9586281 68.6766328,34.6649185 67.8234204,34.6649185 L63.1779806,34.6649185 L63.1779806,12.6424997 L67.8234204,12.6424997 C68.6766328,12.6424997 69.3719003,13.3487901 69.3719003,14.2155296 L69.3719003,33.0918886 Z" id="Shape"></path>
                </g>
            </g>
        </g>
    </g>
</svg>
